<svg xmlns="http://www.w3.org/2000/svg" viewBox="0 0 1815.09 1646.464"><path fill="#0F0" d="M29.113 556.833V437.64c-4.737 39.66-4.6 79.398 0 119.193z"/><path fill="red" d="M38.408 384.502a493.467 493.467 0 00-9.295 53.138v119.194c4.407 38.122 12.905 76.299 25.098 114.512v-342.12c-6.043 17.647-11.34 36.058-15.803 55.276z"/><path fill="#603813" d="M54.211 329.227v342.119c7.127 22.335 15.519 44.683 25.098 67.04V268.781c-9.42 19.01-17.81 39.163-25.098 60.446z"/><path fill="#610707" d="M79.31 268.78v469.606c7.628 17.806 16 35.618 25.097 53.434V224.438c-9.013 14.028-17.398 28.805-25.098 44.343z"/><path fill="#FF1D25" d="M104.407 224.438V791.82c7.842 15.357 16.219 30.717 25.098 46.079V189.306a434.593 434.593 0 00-25.098 35.132z"/><path fill="#006837" d="M129.505 189.306v648.592a1146.574 1146.574 0 0025.098 41.348V160.43a421.149 421.149 0 00-25.098 28.875z"/><path fill="#D9E021" d="M154.603 160.43v718.816a1288.599 1288.599 0 0025.098 37.96V136.207a415.114 415.114 0 00-25.098 24.223z"/><path fill="#22B573" d="M179.701 136.208v780.997a1436.995 1436.995 0 0025.098 35.363V115.673a414.428 414.428 0 00-25.098 20.535z"/><path fill="#461718" d="M204.8 115.673v836.895a1589.523 1589.523 0 0025.097 33.362V98.1a417.907 417.907 0 00-25.098 17.573z"/><path fill="#534741" d="M229.897 98.1v887.83a1750.86 1750.86 0 0025.098 31.682V83.092A424.423 424.423 0 00229.897 98.1z"/><path fill="#00F" d="M254.995 83.093v934.519a1917.902 1917.902 0 0025.098 30.311V70.266a433.556 433.556 0 00-25.098 12.827z"/><path fill="#ED1C24" d="M280.093 70.266v977.657a2094.924 2094.924 0 0025.098 29.142V59.38a444.722 444.722 0 00-25.098 10.886z"/><path fill="#FF7BAC" d="M305.191 59.38v1017.684a2275.86 2275.86 0 0025.099 28.135V50.241a457.68 457.68 0 00-25.099 9.139z"/><path fill="#7AC943" d="M330.29 50.241V1105.2a2468.033 2468.033 0 0025.097 27.26V42.694a471.975 471.975 0 00-25.098 7.547z"/><path fill="#A67C52" d="M355.387 42.694V1132.46c8.253 8.83 16.62 17.659 25.098 26.485V36.612a487.153 487.153 0 00-25.098 6.082z"/><path fill="#00A99D" d="M380.486 36.612v1122.332c8.26 8.6 16.631 17.197 25.098 25.794V31.889a503.565 503.565 0 00-25.099 4.723z"/><path fill="#0FF" d="M405.584 31.89v1152.847c8.273 8.4 16.636 16.799 25.098 25.196V28.443c-8.429.948-16.796 2.1-25.098 3.447z"/><path fill="#FF0" d="M455.463 26.219c-8.314.548-16.574 1.3-24.781 2.223v1181.49a3340.92 3340.92 0 0025.098 24.638V26.2c-.106.008-.211.012-.317.019z"/><path fill="#F15A24" d="M455.78 26.2v1208.37a3585.666 3585.666 0 0025.098 24.152V25.084c-8.265.203-16.625.563-25.098 1.117z"/><path fill="#7AC943" d="M495.382 24.883c-4.793 0-9.636.08-14.504.2v1233.639c8.291 7.9 16.66 15.8 25.098 23.697V24.991a570.3 570.3 0 00-10.594-.108z"/><path fill="#d1b308" d="M505.976 24.99v1257.43c8.3 7.768 16.662 15.536 25.098 23.3V26.022a547.368 547.368 0 00-25.098-1.03z"/><path fill="#998675" d="M531.074 26.021v1279.7a4426.184 4426.184 0 0025.098 22.917V28.258a516.902 516.902 0 00-25.098-2.237z"/><path fill="#0F0" d="M556.172 28.258v1300.38a4738.076 4738.076 0 0025.098 22.586V31.766a490.324 490.324 0 00-25.098-3.508z"/><path fill="#2E3192" d="M581.27 31.766v1319.458a5072.803 5072.803 0 0025.098 22.28V36.643a467.13 467.13 0 00-25.098-4.877z"/><path fill="#736357" d="M606.368 36.643v1336.861a5449.234 5449.234 0 0025.098 21.987V42.996a447.817 447.817 0 00-25.098-6.353z"/><path fill="#3FA9F5" d="M631.466 42.996v1352.495a5844.534 5844.534 0 0025.098 21.73V50.989a431.58 431.58 0 00-25.098-7.993z"/><path fill="#F7931E" d="M656.564 50.99v1366.23c8.325 7.167 16.69 14.331 25.098 21.493V60.737a419.766 419.766 0 00-25.098-9.748z"/><path fill="#009245" d="M681.662 60.737v1377.976a6712.495 6712.495 0 0025.098 21.274V72.431a411.991 411.991 0 00-25.098-11.694z"/><path fill="#ED1E79" d="M706.76 72.43v1387.557a7228.251 7228.251 0 0025.098 21.065V86.288a408.872 408.872 0 00-25.098-13.857z"/><path fill="#534741" d="M731.858 86.288v1394.764c8.333 6.963 16.7 13.923 25.098 20.881V102.611a410.434 410.434 0 00-25.098-16.323z"/><path fill="#93278F" d="M756.956 102.611v1399.322a8437.673 8437.673 0 0025.098 20.712V121.715a417.567 417.567 0 00-25.098-19.104z"/><path fill="#0FF" d="M782.054 121.716v1400.929a9137.534 9137.534 0 0025.098 20.556V144.091a431.027 431.027 0 00-25.098-22.375z"/><path fill="#461718" d="M807.152 144.092v1399.11a9929.059 9929.059 0 0025.098 20.413V170.285a451.96 451.96 0 00-25.098-26.193z"/><path fill="#ED1C24" d="M832.25 170.284v1393.331a10833.18 10833.18 0 0025.098 20.285V201.182c-8-10.71-16.362-21.02-25.098-30.898z"/><path fill="#C7B299" d="M857.348 201.182V1583.9c8.347 6.725 16.713 13.447 25.098 20.166V237.99a523.08 523.08 0 00-25.098-36.807z"/><path fill="#F7931E" d="M907.544 278.356c-.371.723-.751 1.44-1.12 2.164-7.489-14.679-15.481-28.867-23.978-42.53v1366.077c7.977 6.39 15.97 12.78 23.978 19.165.374-.278.746-.558 1.12-.837V278.356z"/><path fill="#A67C52" d="M932.642 1603.594V234.348c-8.954 14.202-17.32 28.897-25.098 44.008v1344.04a5972.908 5972.908 0 0025.098-18.802z"/><path fill="#C7B299" d="M957.74 1584.581V197.925a537.106 537.106 0 00-25.098 36.423v1369.246a5802.64 5802.64 0 0025.098-19.013z"/><path fill="#0a0a75" d="M982.839 1565.35V167.146a500.111 500.111 0 00-25.099 30.78V1584.58c8.4-6.398 16.766-12.809 25.099-19.231z"/><path fill="#ED1E79" d="M1007.937 1545.89V140.888a469.585 469.585 0 00-25.098 26.257V1565.35a5445.944 5445.944 0 0025.097-19.46z"/><path fill="#FCEE21" d="M1033.035 1526.188V118.35a445.318 445.318 0 00-25.099 22.539v1405a5274.852 5274.852 0 0025.099-19.7z"/><path fill="#100e29" d="M1058.133 1506.236V99.024a426.623 426.623 0 00-25.098 19.326v1407.838c8.406-6.639 16.771-13.29 25.098-19.952z"/><path fill="#A67C52" d="M1083.23 1486.02V82.48a413.022 413.022 0 00-25.097 16.544v1407.212a4932.381 4932.381 0 0025.098-20.216z"/><path fill="#3d5320" d="M1108.329 1465.527V68.407a404.168 404.168 0 00-25.098 14.072v1403.54a4756.976 4756.976 0 0025.098-20.492z"/><path fill="#A67C52" d="M1133.427 1444.742V56.582a399.718 399.718 0 00-25.098 11.825v1397.12a4597.478 4597.478 0 0025.098-20.785z"/><path fill="#C7B299" d="M1158.525 1423.649V46.795c-8.529 3-16.896 6.264-25.098 9.787v1388.16a4423.81 4423.81 0 0025.098-21.093z"/><path fill="#361236" d="M1183.623 1402.231V38.883a402.827 402.827 0 00-25.098 7.912v1376.854c8.42-7.13 16.787-14.269 25.098-21.418z"/><path fill="#461718" d="M1208.72 1380.47V32.699a409.822 409.822 0 00-25.097 6.185v1363.348a4091.734 4091.734 0 0025.098-21.76z"/><path fill="#39B54A" d="M1233.819 1358.329V28.144a420.697 420.697 0 00-25.098 4.554v1347.773a3919.786 3919.786 0 0025.098-22.142z"/><path fill="#FCEE21" d="M1258.917 1335.796V25.122a435.258 435.258 0 00-25.098 3.022v1330.184a3750.212 3750.212 0 0025.098-22.532z"/><path fill="#461718" d="M1284.015 1312.85V23.533c-8.482.302-16.848.835-25.098 1.59v1310.673c8.435-7.64 16.804-15.289 25.098-22.946z"/><path fill="#39B54A" d="M1309.113 1289.448V23.313a483.352 483.352 0 00-8.358-.08c-5.63 0-11.208.103-16.74.3V1312.85a3431.996 3431.996 0 0025.098-23.402z"/><path fill="#3FA9F5" d="M1334.211 1265.552V24.379a498.502 498.502 0 00-25.098-1.066v1266.135a3271.945 3271.945 0 0025.098-23.896z"/><path fill="#25211b" d="M1359.31 1241.145V26.703c-1.397-.16-2.784-.333-4.185-.484a525.334 525.334 0 00-20.914-1.84v1241.173c8.45-8.13 16.823-16.265 25.098-24.407z"/><path fill="#2E3192" d="M1384.407 1216.14V30.058a646.815 646.815 0 00-25.098-3.355v1214.442a2949.97 2949.97 0 0025.098-25.005z"/><path fill="#4b274a" d="M1409.505 1190.53V34.477a618.224 618.224 0 00-25.098-4.42V1216.14a2799.215 2799.215 0 0025.098-25.61z"/><path fill="#998675" d="M1434.603 1164.21V39.976a592.27 592.27 0 00-25.098-5.5V1190.53c8.48-8.768 16.84-17.542 25.098-26.32z"/><path fill="#FF0" d="M1459.701 1137.135V46.657a567.175 567.175 0 00-25.098-6.681V1164.21a2491.782 2491.782 0 0025.098-27.075z"/><path fill="#A67C52" d="M1484.8 1109.216V54.643a542.582 542.582 0 00-25.099-7.986v1090.478a2340.995 2340.995 0 0025.098-27.92z"/><path fill="#FCEE21" d="M1509.898 1080.339V64.029a520.116 520.116 0 00-25.099-9.385v1054.572c8.51-9.624 16.88-19.25 25.099-28.877z"/><path fill="#50172f" d="M1534.995 1050.364V74.963a498.955 498.955 0 00-25.097-10.935v1016.31a2043.847 2043.847 0 0025.097-29.974z"/><path fill="#331b32" d="M1560.093 1019.132V87.63a479.604 479.604 0 00-25.098-12.667v975.4a1897.674 1897.674 0 0025.099-31.231z"/><path fill="#39B54A" d="M1585.191 986.428V102.285a461.823 461.823 0 00-25.098-14.655v931.502a1754.913 1754.913 0 0025.098-32.704z"/><path fill="#8C6239" d="M1610.29 951.994V119.239a446.419 446.419 0 00-25.098-16.954v884.143c8.6-11.483 16.97-22.962 25.098-34.434z"/><path fill="#3d5320" d="M1635.388 915.429v-776.53a433.717 433.717 0 00-25.098-19.66v832.754a1474.017 1474.017 0 0025.098-36.564z"/><path fill="#FF0" d="M1660.486 876.205V161.883a423.953 423.953 0 00-25.098-22.983v776.529a1336.887 1336.887 0 0025.098-39.224z"/><path fill="#998675" d="M1685.584 833.485V189.106a418.242 418.242 0 00-25.098-27.223v714.322a1200.37 1200.37 0 0025.098-42.72z"/><path fill="#8CC63F" d="M1710.682 785.914V222.063a417.687 417.687 0 00-25.098-32.956v644.38c8.89-15.887 17.263-31.745 25.098-47.572z"/><path fill="#3d5320" d="M1735.78 730.91v-467.4a424.788 424.788 0 00-25.098-41.448v563.852c9.1-18.382 17.483-36.72 25.098-55.005z"/><path fill="#7AC943" d="M1760.878 662.087v-341.9c-7.171-19.77-15.558-38.674-25.098-56.677v467.4c9.593-23.033 17.98-45.98 25.098-68.823z"/><path fill="#9ddc4d" d="M1785.976 545.433V425.811c-2.489-20.708-6.3-41.267-11.536-61.653a476.338 476.338 0 00-13.562-43.972v341.901c12.223-39.224 20.699-78.14 25.098-116.654z"/><path fill="#39B54A" d="M1785.976 425.81v119.623c4.609-40.353 4.73-80.263 0-119.622z"/></svg>